<svg width="146" height="332" viewBox="0 0 146 332" fill="none" xmlns="http://www.w3.org/2000/svg">
<path d="M68.8352 331.983L91.6782 314.332L64.9712 303.375L68.8352 331.983ZM74.2331 2.01471C72.7548 -0.00139189 72.7529 2.6464e-09 72.7529 2.6464e-09L72.7495 0.002472C72.7468 0.00448 72.7431 0.00720801 72.7384 0.010652C72.729 0.017541 72.7158 0.0273 72.6988 0.039913C72.6647 0.065139 72.6154 0.101781 72.5513 0.149714C72.4231 0.24558 72.2358 0.386621 71.9932 0.571835C71.508 0.942247 70.8014 1.48944 69.9039 2.20539C68.109 3.63712 65.5493 5.74473 62.4685 8.4641C56.3096 13.9003 48.0529 21.7946 39.656 31.6345C22.9113 51.2567 5.36764 78.8973 3.16127 110.394L8.14904 110.743C10.2456 80.8147 26.991 54.1785 43.4594 34.8801C51.6691 25.2596 59.7501 17.5326 65.7772 12.2127C68.7894 9.55395 71.2848 7.49971 73.0218 6.11413C73.8902 5.42142 74.5687 4.89609 75.0272 4.54614C75.2563 4.37117 75.4305 4.24008 75.5458 4.15385C75.6034 4.11073 75.6464 4.07884 75.6741 4.05829C75.688 4.04802 75.6981 4.04058 75.7043 4.03599C75.7074 4.0337 75.7107 4.03126 75.7107 4.03126L75.7118 4.0305C75.7118 4.0305 75.7113 4.03081 74.2331 2.01471ZM3.16127 110.394C2.4669 120.306 3.87168 128.12 7.10903 134.245C10.3622 140.399 15.3444 144.618 21.376 147.532C33.2276 153.257 49.5391 154.093 65.7808 154.858C82.3084 155.636 98.9587 156.335 112.511 161.319C119.23 163.79 125.086 167.284 129.736 172.293C134.377 177.291 137.924 183.914 139.861 192.813L144.747 191.75C142.641 182.078 138.717 174.618 133.401 168.891C128.094 163.174 121.507 159.3 114.237 156.626C99.8113 151.321 82.3016 150.63 66.0161 149.863C49.4446 149.083 34.2899 148.217 23.5508 143.03C18.2871 140.487 14.1929 136.947 11.5295 131.908C8.85045 126.84 7.49878 120.026 8.14904 110.743L3.16127 110.394ZM139.861 192.813C148.884 234.262 84.5652 284.092 75.0272 310.311L79.7262 312.02C89.3272 285.629 154.087 234.657 144.747 191.75L139.861 192.813Z" fill="#DCFC35"/>
</svg>
