<svg width="27" height="14" viewBox="0 0 27 14" fill="none" xmlns="http://www.w3.org/2000/svg">
<path d="M0.642717 0.568846C0.439062 0.747615 0.277417 0.960301 0.167105 1.19464C0.0567942 1.42898 0 1.68032 0 1.93418C0 2.18804 0.0567942 2.43939 0.167105 2.67373C0.277417 2.90807 0.439062 3.12075 0.642717 3.29952L11.5068 12.9146C11.7088 13.0948 11.9491 13.2379 12.2139 13.3355C12.4787 13.4331 12.7627 13.4834 13.0495 13.4834C13.3364 13.4834 13.6204 13.4331 13.8851 13.3355C14.1499 13.2379 14.3902 13.0948 14.5922 12.9146L25.4563 3.29952C25.66 3.12075 25.8216 2.90807 25.9319 2.67373C26.0423 2.43939 26.099 2.18804 26.099 1.93418C26.099 1.68032 26.0423 1.42898 25.9319 1.19464C25.8216 0.960301 25.66 0.747615 25.4563 0.568846C25.2543 0.388605 25.014 0.245544 24.7492 0.147916C24.4845 0.0502872 24.2005 2.28882e-05 23.9136 2.28882e-05C23.6268 2.28882e-05 23.3428 0.0502872 23.078 0.147916C22.8132 0.245544 22.5729 0.388605 22.3709 0.568846L13.0495 8.83779L3.72812 0.568846C3.52613 0.388605 3.28581 0.245544 3.02104 0.147916C2.75626 0.0502872 2.47226 2.28882e-05 2.18542 2.28882e-05C1.89858 2.28882e-05 1.61458 0.0502872 1.3498 0.147916C1.08502 0.245544 0.844709 0.388605 0.642717 0.568846Z" fill="white"/>
</svg>
