<svg width="22" height="11" viewBox="0 0 22 11" fill="none" xmlns="http://www.w3.org/2000/svg">
<path d="M0.541773 0.464056C0.370104 0.6099 0.233846 0.783414 0.14086 0.97459C0.0478743 1.16577 0 1.37082 0 1.57793C0 1.78503 0.0478743 1.99008 0.14086 2.18126C0.233846 2.37244 0.370104 2.54595 0.541773 2.69179L9.69959 10.5359C9.86986 10.683 10.0724 10.7997 10.2956 10.8793C10.5188 10.959 10.7582 11 11 11C11.2418 11 11.4812 10.959 11.7044 10.8793C11.9276 10.7997 12.1301 10.683 12.3004 10.5359L21.4582 2.69179C21.6299 2.54595 21.7662 2.37244 21.8591 2.18126C21.9521 1.99008 22 1.78503 22 1.57793C22 1.37082 21.9521 1.16577 21.8591 0.97459C21.7662 0.783414 21.6299 0.6099 21.4582 0.464056C21.288 0.317013 21.0854 0.200301 20.8622 0.120654C20.639 0.0410061 20.3996 0 20.1578 0C19.916 0 19.6766 0.0410061 19.4534 0.120654C19.2302 0.200301 19.0277 0.317013 18.8574 0.464056L11 7.21002L3.14259 0.464056C2.97233 0.317013 2.76975 0.200301 2.54656 0.120654C2.32337 0.0410061 2.08397 0 1.84218 0C1.6004 0 1.361 0.0410061 1.13781 0.120654C0.914614 0.200301 0.712041 0.317013 0.541773 0.464056Z" fill="#1F1F1F"/>
</svg>
