<svg width="1440" height="335" viewBox="0 0 1440 335" fill="none" xmlns="http://www.w3.org/2000/svg">
<rect x="74" y="55" width="1282" height="232" fill="white"/>
<path d="M0 167.333V334.667H720H1440V167.333V6.3926e-05H720H0V167.333ZM1309.73 99.0667C1318.4 102.933 1330.13 113.467 1333.87 120.533C1335.33 123.2 1336.13 125.6 1335.87 125.867C1333.47 127.867 1318.13 136 1317.33 135.733C1316.8 135.467 1314.27 132.667 1311.87 129.467C1306.27 122.267 1299.2 118.4 1289.73 117.6C1275.6 116.4 1265.33 123.6 1265.33 134.8C1265.33 144.533 1271.2 148.667 1299.2 158.267C1319.2 165.067 1325.87 168.533 1332 175.467C1338.13 182.533 1340 187.867 1340 198.4C1340 210.667 1337.07 218.8 1330 225.867C1320.27 235.6 1308.27 239.867 1291.07 240C1272 240 1257.07 234.4 1246.4 223.067C1240.27 216.4 1236 209.6 1236 206.4C1236 205.467 1240.53 202.133 1245.87 199.2L1255.87 193.6L1257.6 197.867C1262.67 210.267 1278 218.267 1294 217.067C1308.4 215.867 1316.53 209.467 1316.53 199.333C1316.53 189.067 1310.8 184.933 1284.13 176C1263.73 169.333 1255.87 165.2 1249.33 157.6C1236.27 142.8 1239.73 116.667 1256.53 104.267C1266.93 96.5334 1274.53 94.5334 1289.47 95.0667C1299.6 95.4667 1303.73 96.2667 1309.73 99.0667ZM138.667 148.933C146.267 177.467 152.8 201.2 153.067 201.867C153.467 202.533 156.267 194.4 159.333 183.867C162.4 173.333 169.333 149.467 174.667 130.933L184.4 97.2001L196.4 97.6001L208.4 98.0001L216.8 127.333C221.467 143.467 228.4 167.467 232.267 180.533L239.2 204.4L251.733 157.867C258.533 132.267 265.067 108.133 266.267 104.267L268.133 97.3334H280.8C292.267 97.3334 293.467 97.6001 292.8 99.6001C291.067 105.733 256 236 256 236.667C256 237.067 249.2 237.2 241.067 237.067L226 236.667L211.333 185.733C203.333 157.733 196.267 135.467 195.867 136.4C194.933 138 166.667 235.333 166.667 236.667C166.667 237.067 160 237.2 151.867 237.067L136.933 236.667L118.533 168.667C108.4 131.2 100.133 99.8667 100 98.9334C100 97.7334 103.333 97.3334 112.4 97.3334H124.8L138.667 148.933ZM334.667 167.333V237.333H322.667H310.667V167.333V97.3334H322.667H334.667V167.333ZM385.333 156V214.667L413.733 214.933L442 215.333L442.4 226.267L442.8 237.333H402H361.333V167.333V97.3334H373.333H385.333V156ZM532.667 99.3334C555.733 105.333 574.933 125.467 580.667 149.467C584.667 166.933 582.4 186.533 574.267 201.867C569.2 211.733 556.533 224.667 547.2 229.6C534.533 236.4 527.733 237.333 491.733 237.333H458.667V167.333V97.3334H491.733C517.067 97.3334 526.533 97.8667 532.667 99.3334ZM676 99.8667C692.133 106 701.6 119.2 701.6 135.733C701.6 146.533 698.533 154.667 692.267 160.533L688.133 164.267L693.733 168.533C697.067 171.067 700.933 175.867 703.333 180.533C706.667 187.067 707.2 189.867 707.2 197.867C707.2 203.467 706.267 209.333 705.067 212.267C702 219.333 692.533 228.933 684.667 233.067L678 236.667L641.067 237.067L604 237.467V167.467V97.3334H636.667C665.6 97.3334 670 97.6001 676 99.8667ZM814.4 108.267L814 119.333L783.733 119.733L753.333 120V138V156H781.333H809.333V166.667V177.333H781.333H753.333V196V214.667L784.4 214.933L815.333 215.333L815.733 226.267L816.133 237.333H772.667H729.333V167.333V97.3334H772H814.8L814.4 108.267ZM912.667 101.6C921.067 105.867 931.333 116.667 935.067 125.067C938.933 133.733 939.067 150.133 935.067 158.8C931.6 166.4 923.867 175.333 916.4 180L910.8 183.6L926.667 210.533L942.533 237.333H929.333H916.267L901.6 212.267L886.933 187.333L873.467 186.933L860 186.533V212V237.333H848H836V167.2V97.2001L871.067 97.6001C905.867 98.0001 906 98.0001 912.667 101.6ZM1031.73 99.3334C1040.8 102.133 1053.2 113.467 1058.27 123.6C1062.93 133.467 1063.33 149.2 1058.93 158.933C1055.47 166.533 1047.87 175.2 1040.27 180L1034.67 183.467L1050.53 210.4L1066.53 237.467L1053.07 237.067L1039.73 236.667L1025.33 212L1010.93 187.333L997.467 186.933L984 186.533V212V237.333H972H960V167.333V97.3334H992.4C1017.6 97.3334 1026.4 97.7334 1031.73 99.3334ZM1106.67 167.333V237.333H1094.67H1082.67V167.333V97.3334H1094.67H1106.67V167.333ZM1218.67 108.667V120H1188H1157.33V138V156H1185.33H1213.33V166.667V177.333H1185.33H1157.33V196V214.667L1188.4 214.933L1219.33 215.333L1219.73 226.267L1220.13 237.333H1176.67H1133.33V167.333V97.3334H1176H1218.67V108.667Z" fill="#AE119C"/>
<path d="M482.667 167.333V214.667H503.733C529.067 214.667 534.267 213.333 544.533 203.867C554.933 194.4 559.2 184.267 559.2 168.667C559.333 154.667 557.6 148 551.6 139.2C541.467 124 531.067 120 502.4 120H482.667V167.333Z" fill="#AE119C"/>
<path d="M628 137.334V156.267L647.067 155.734C662.533 155.467 666.8 154.934 669.733 152.934C680.8 145.734 681.067 130.134 670.267 122.134C666.933 119.6 664.133 119.334 647.2 118.934L628 118.4V137.334Z" fill="#AE119C"/>
<path d="M628 196.8V216.267L649.067 215.734C667.067 215.334 670.667 214.934 674.533 212.667C683.467 207.334 686.4 196 681.2 186.667C676.4 178.134 673.733 177.334 649.467 177.334H628V196.8Z" fill="#AE119C"/>
<path d="M860 142V165.333H878.667C894.667 165.333 898.133 164.933 902.533 162.667C914.933 156.4 918.133 138.8 909.067 127.2C903.733 120.533 897.2 118.667 877.733 118.667H860V142Z" fill="#AE119C"/>
<path d="M984 142V165.333H1002.8C1019.33 165.333 1022.27 165.067 1026.53 162.533C1042.93 153.2 1042 128.933 1024.8 121.2C1020.4 119.2 1016 118.667 1001.73 118.667H984V142Z" fill="#AE119C"/>
</svg>
