<svg width="2237" height="418" viewBox="0 0 2237 418" fill="none" xmlns="http://www.w3.org/2000/svg">
<rect x="79.5525" y="69.1737" width="245" height="267" fill="white"/>
<circle cx="633.052" cy="201.674" r="201.5" fill="#FED32C"/>
<path d="M182.552 0.973693C165.886 2.70703 155.752 4.84036 139.886 9.77369C79.3524 29.107 30.6857 77.107 10.4191 137.64C-2.64759 176.707 -3.44759 219.374 8.15241 259.507C34.1524 349.64 122.819 410.974 216.152 403.374C266.419 399.374 308.419 379.907 344.019 344.307C368.019 320.174 382.019 297.64 392.419 266.707C412.552 206.174 404.152 142.707 368.952 89.507C358.152 73.2404 332.819 47.3737 316.952 36.307C295.752 21.6404 267.219 9.37369 242.419 4.30703C221.352 0.0403598 202.152 -1.02631 182.552 0.973693ZM272.552 202.974V324.974L252.286 324.574L231.886 324.174L231.219 218.84L230.552 113.507L224.286 113.107C220.686 112.84 211.619 113.24 204.019 114.04C182.152 116.04 170.552 122.574 162.952 137.374C158.552 145.774 158.019 165.64 161.752 177.907C166.686 194.44 175.086 203.374 206.286 224.84C211.886 228.84 216.552 232.574 216.419 233.374C216.419 234.174 203.352 254.974 187.486 279.507L158.419 324.174L136.552 324.574C124.552 324.707 113.886 324.574 112.819 324.174C111.619 323.774 118.419 312.707 134.686 288.574C147.752 269.24 160.152 250.84 162.419 247.774L166.552 241.907L162.552 239.107C137.486 220.974 123.219 201.507 118.686 179.24C110.419 138.84 128.552 102.04 163.486 88.5737C180.552 81.907 182.152 81.7737 226.552 80.9737C250.019 80.5737 270.019 80.4404 270.952 80.707C272.152 80.9737 272.552 106.707 272.552 202.974Z" fill="#FC401D"/>
<path d="M944.552 201.507V354.174H966.552H988.552L988.819 240.707L989.219 127.374L995.086 149.107C998.286 161.107 1004.95 185.774 1010.02 204.174C1014.95 222.44 1023.35 253.374 1028.55 272.84C1033.75 292.307 1040.42 316.574 1043.09 326.84C1045.89 337.107 1048.69 347.507 1049.22 349.907L1050.15 354.174L1072.29 353.907L1094.29 353.507L1095.35 350.174C1095.89 348.307 1098.82 337.507 1101.89 326.174C1150.95 143.507 1154.02 132.44 1155.22 128.84C1155.89 126.974 1156.42 174.707 1156.42 239.774L1156.55 354.174H1181.22H1205.89V201.507V48.8404H1171.89H1138.02L1135.35 57.7737C1133.89 62.8404 1129.35 79.107 1125.22 94.1737C1121.09 109.24 1114.42 133.24 1110.55 147.507C1106.55 161.774 1099.62 186.974 1095.22 203.507C1080.15 258.174 1076.69 270.44 1076.02 271.107C1075.22 271.907 1073.22 264.44 1041.89 148.174C1038.29 134.974 1030.82 107.507 1025.35 87.107C1019.75 66.707 1015.22 49.7737 1015.22 49.3737C1015.22 49.107 999.352 48.8404 979.886 48.8404H944.552V201.507Z" fill="black"/>
<path d="M642.952 140.84C616.286 184.707 594.419 220.44 594.286 220.307C594.019 220.174 596.286 204.707 599.086 186.04C604.819 149.24 606.552 136.574 605.886 135.507C605.486 134.707 593.886 130.574 558.152 118.307C537.486 111.24 533.352 110.174 531.886 111.64C530.952 112.707 508.552 142.04 482.152 176.974L434.019 240.574L437.752 254.307C442.019 269.907 447.619 284.707 453.886 296.307C459.352 306.44 465.086 315.507 465.886 315.374C466.286 315.374 482.152 294.707 501.086 269.374C520.152 244.174 535.752 223.64 536.019 223.774C536.152 224.04 535.486 229.507 534.419 236.174C528.819 273.374 523.352 317.374 524.152 318.174C524.819 318.707 540.819 324.307 559.886 330.84C578.952 337.24 595.219 342.84 596.019 343.107C596.819 343.374 603.486 333.907 610.819 321.907C638.286 277.24 664.419 234.307 674.419 217.774C680.152 208.44 684.952 200.84 685.086 200.84C685.219 200.84 684.952 204.04 684.419 207.774C682.686 219.64 683.086 240.04 685.219 250.974C689.619 274.307 702.819 292.174 722.152 301.24C734.552 307.107 744.019 309.374 756.552 309.24C769.219 309.107 780.419 306.307 793.486 299.64C809.086 291.774 817.352 285.24 820.419 278.174C832.286 250.307 837.486 212.44 833.886 180.04C832.952 171.64 831.752 164.84 831.219 164.84C830.552 164.84 826.152 170.44 821.486 177.107C797.619 211.24 776.286 231.507 764.152 231.507C754.819 231.507 749.886 221.774 749.886 203.774C749.886 186.174 759.219 139.374 770.552 100.574C772.286 94.4404 773.619 89.3737 773.352 89.2404C773.219 89.1071 754.686 82.5737 732.152 74.9737L691.352 61.1071L642.952 140.84Z" fill="black"/>
<path d="M1550.29 130.707C1537.62 133.774 1528.42 139.374 1517.75 150.307L1507.62 160.574L1506.42 147.107L1505.22 133.507H1481.22H1457.22V275.507V417.507H1483.22H1509.22V373.774C1509.22 349.774 1509.35 330.174 1509.49 330.174C1509.49 330.174 1513.49 334.04 1518.15 338.707C1532.95 353.374 1548.95 359.24 1570.95 357.774C1591.62 356.44 1607.75 348.707 1622.02 332.974C1641.49 311.774 1651.35 276.574 1649.49 234.84C1647.75 195.64 1637.89 168.707 1618.42 149.507C1601.35 132.574 1573.75 125.107 1550.29 130.707ZM1570.69 173.907C1573.75 175.507 1578.55 179.374 1581.49 182.574C1600.82 204.574 1601.35 277.774 1582.29 302.707C1575.49 311.64 1567.35 315.774 1554.69 316.574C1536.55 317.64 1525.22 311.107 1517.62 294.707C1512.02 282.84 1510.02 268.974 1510.02 244.174C1510.02 199.907 1518.29 180.174 1540.42 171.907C1547.49 169.24 1563.75 170.307 1570.69 173.907Z" fill="black"/>
<path d="M1944.55 130.707C1933.09 133.107 1923.35 136.974 1915.22 142.174C1906.55 147.774 1892.82 162.44 1887.49 171.907C1870.55 202.04 1866.29 255.64 1877.89 293.507C1888.95 329.24 1915.35 351.24 1954.15 356.974C1967.35 358.84 1996.15 357.907 2009.35 354.974C2021.35 352.44 2034.55 347.64 2042.42 342.974L2048.55 339.374V318.04V296.84L2041.35 300.84C2015.22 315.64 1974.95 321.107 1953.62 312.974C1937.62 306.84 1927.22 290.44 1925.75 268.707L1925.22 262.84L1988.29 262.44L2051.22 262.174V244.974C2051.22 224.707 2049.22 203.507 2046.42 191.774C2038.42 159.774 2020.55 139.774 1993.22 132.174C1982.15 129.24 1955.62 128.44 1944.55 130.707ZM1977.22 172.707C1989.62 178.44 1996.15 191.107 1997.49 211.774L1998.29 223.507H1962.02H1925.89V217.507C1925.89 204.307 1931.22 188.44 1938.29 180.974C1947.89 170.84 1965.35 167.107 1977.22 172.707Z" fill="black"/>
<path d="M1304.15 132.174C1290.95 134.707 1271.35 141.24 1262.55 145.907L1255.89 149.507L1255.49 170.974L1255.22 192.44L1268.15 186.04C1292.29 173.907 1325.22 168.44 1342.55 173.507C1357.35 177.774 1363.22 187.507 1363.22 207.374V215.107L1354.29 215.907C1349.22 216.44 1341.75 216.84 1337.35 216.84C1333.09 216.84 1323.22 217.774 1315.49 218.974C1262.69 226.707 1236.69 252.44 1239.75 293.507C1241.22 313.24 1247.22 327.64 1258.69 339.107C1271.75 352.307 1289.09 357.774 1313.62 356.44C1331.62 355.64 1344.29 351.24 1353.75 342.707C1357.35 339.507 1360.82 336.84 1361.49 336.84C1362.15 336.84 1363.62 340.574 1364.69 345.107L1366.55 353.507L1392.42 353.907L1418.29 354.174L1417.22 348.574C1416.69 345.374 1415.89 306.84 1415.22 262.84C1414.42 196.44 1413.89 181.64 1412.15 175.907C1405.49 153.107 1391.62 139.907 1367.89 133.374C1356.42 130.307 1318.15 129.64 1304.15 132.174ZM1363.22 276.707V301.907L1356.82 307.774C1348.29 315.24 1338.82 318.707 1325.89 318.707C1308.02 318.707 1297.09 310.44 1293.89 294.574C1291.35 282.84 1294.02 271.374 1301.09 263.774C1308.15 255.907 1324.02 251.774 1347.62 251.64L1363.22 251.507V276.707Z" fill="black"/>
<path d="M1684.55 243.507V354.174H1710.55H1736.55L1736.82 300.174L1737.22 246.04L1775.75 300.174L1814.15 354.174H1843.35C1859.49 354.174 1872.55 353.907 1872.55 353.64C1872.55 353.24 1866.02 343.774 1858.15 332.574C1850.29 321.374 1831.62 294.84 1816.69 273.774L1789.62 235.24L1794.02 229.107C1798.29 223.107 1805.22 213.374 1843.09 161.107C1852.69 147.774 1860.95 135.907 1861.35 134.84C1862.02 133.107 1858.55 132.84 1836.95 132.84C1812.42 132.84 1811.62 132.974 1808.95 135.774C1807.49 137.507 1790.69 160.44 1771.75 186.84L1737.22 234.84L1736.82 183.774L1736.55 132.84H1710.55H1684.55V243.507Z" fill="black"/>
<path d="M2061.89 153.507V174.174H2092.55H2123.22V264.174V354.174H2149.22H2175.22V264.174V174.174H2205.89H2236.55V153.507V132.84H2149.22H2061.89V153.507Z" fill="black"/>
</svg>
